HIERARCHY
ROOT Hips
{
	OFFSET -21.947001 39.810204 44.525997
	CHANNELS 6 Xposition Yposition Zposition Zrotation Xrotation Yrotation
	JOINT Chest
	{
		OFFSET -0.201599 0.334099 6.453201
		CHANNELS 6 Xposition Yposition Zposition Zrotation Xrotation Yrotation
		JOINT Chest2
		{
			OFFSET 0.000000 0.000000 3.568001
			CHANNELS 6 Xposition Yposition Zposition Zrotation Xrotation Yrotation
			JOINT Neck
			{
				OFFSET 0.000000 0.000000 8.296402
				CHANNELS 6 Xposition Yposition Zposition Zrotation Xrotation Yrotation
				JOINT Head
				{
					OFFSET 0.000000 0.000000 2.173901
					CHANNELS 6 Xposition Yposition Zposition Zrotation Xrotation Yrotation
					End Site
					{
						OFFSET 0.000000 0.000000 7.891998
					}
				}
			}
			JOINT LeftCollar
			{
				OFFSET 1.927601 0.221401 6.049000
				CHANNELS 6 Xposition Yposition Zposition Zrotation Xrotation Yrotation
				JOINT LeftShoulder
				{
					OFFSET 4.959700 0.000000 0.000000
					CHANNELS 6 Xposition Yposition Zposition Zrotation Xrotation Yrotation
					JOINT LeftElbow
					{
						OFFSET 0.000000 0.000000 -8.654202
						CHANNELS 6 Xposition Yposition Zposition Zrotation Xrotation Yrotation
						JOINT LeftWrist
						{
							OFFSET 0.000000 0.000000 -13.864101
							CHANNELS 6 Xposition Yposition Zposition Zrotation Xrotation Yrotation
							End Site
							{
								OFFSET 0.000000 0.000000 -2.173901
							}
						}
					}
				}
			}
			JOINT RightCollar
			{
				OFFSET -3.155701 -0.764999 6.687801
				CHANNELS 6 Xposition Yposition Zposition Zrotation Xrotation Yrotation
				JOINT RightShoulder
				{
					OFFSET -3.592899 0.000000 0.000000
					CHANNELS 6 Xposition Yposition Zposition Zrotation Xrotation Yrotation
					JOINT RightElbow
					{
						OFFSET 0.000000 0.000000 -10.352398
						CHANNELS 6 Xposition Yposition Zposition Zrotation Xrotation Yrotation
						JOINT RightWrist
						{
							OFFSET 0.000000 0.000000 -12.750301
							CHANNELS 6 Xposition Yposition Zposition Zrotation Xrotation Yrotation
							End Site
							{
								OFFSET 0.000000 0.000000 -2.173901
							}
						}
					}
				}
			}
		}
	}
	JOINT LeftHip
	{
		OFFSET 2.460600 -0.518101 -2.735500
		CHANNELS 6 Xposition Yposition Zposition Zrotation Xrotation Yrotation
		JOINT LeftKnee
		{
			OFFSET 0.000000 -0.000004 -17.005899
			CHANNELS 6 Xposition Yposition Zposition Zrotation Xrotation Yrotation
			JOINT LeftAnkle
			{
				OFFSET 0.000000 0.000000 -19.194401
				CHANNELS 6 Xposition Yposition Zposition Zrotation Xrotation Yrotation
				End Site
				{
					OFFSET 0.000000 -8.134600 0.000000
				}
			}
		}
	}
	JOINT RightHip
	{
		OFFSET -3.115499 -0.679600 -2.320301
		CHANNELS 6 Xposition Yposition Zposition Zrotation Xrotation Yrotation
		JOINT RightKnee
		{
			OFFSET 0.000000 -0.000004 -17.680401
			CHANNELS 6 Xposition Yposition Zposition Zrotation Xrotation Yrotation
			JOINT RightAnkle
			{
				OFFSET 0.000000 0.000000 -16.993797
				CHANNELS 6 Xposition Yposition Zposition Zrotation Xrotation Yrotation
				End Site
				{
					OFFSET 0.000000 -8.842300 0.000000
				}
			}
		}
	}
}
MOTION
Frames: 7
Frame Time: 0.041667
-2.853596 19.121504 46.640392 2061.443108 4.763933 -17.837953 -0.201600 0.334100 6.453207 -14.222803 0.182324 12.069592 -0.000002 0.000004 3.567996 -0.936259 -6.510089 -0.974715 -0.000002 -0.000004 8.296403 235.883479 -162.858593 187.657289 -0.000002 -0.000004 2.173898 4.888050 -6.156590 4.743272 1.927598 0.221409 6.048999 -10.734286 -3.495851 9.227620 4.959704 -0.000002 0.000008 166.028812 196.526577 61.020767 -0.000000 0.000003 -8.654202 81.638833 -15.441910 8.854662 -0.000002 0.000001 -13.864092 4197.262058 -152.023796 198.973492 -3.155708 -0.764999 6.687808 33.369733 0.441593 11.543856 -3.592905 0.000001 0.000003 -209.268855 149.386961 218.025826 0.000001 0.000001 -10.352403 -393.938100 -6.335572 -356.512188 -0.000009 0.000000 -12.750301 13.143800 6.557510 -9.922590 2.460599 -0.518103 -2.735495 -217.115690 8.921458 113.216499 -0.000001 0.000000 -17.005901 -8.730985 188.433349 -72.901157 -0.000007 -0.000001 -19.194401 615.732265 160.628168 247.482779 -3.115500 -0.679598 -2.320299 -366.104505 -15.256298 9.907250 -0.000001 -0.000002 -17.680399 -468.856423 155.284282 -205.797411 0.000005 0.000000 -16.993795 1025.738904 21.175123 -384.548010
-2.881996 19.086702 46.625496 2061.566598 4.628515 -18.253074 -0.201597 0.334098 6.453200 -14.638741 0.329750 12.272813 0.000001 -0.000001 3.568000 -0.788624 -6.512397 -0.913358 0.000005 0.000002 8.296400 235.896047 -162.793365 187.985958 -0.000005 -0.000001 2.173898 5.267500 -6.241050 4.307243 1.927603 0.221407 6.049001 -10.796891 -3.746548 8.863047 4.959704 -0.000004 -0.000001 166.408653 196.905147 61.638223 -0.000008 0.000002 -8.654202 80.885381 -15.726299 9.032626 0.000004 -0.000004 -13.864105 4197.523463 -152.023414 198.655068 -3.155703 -0.764995 6.687808 32.719529 0.266844 12.032871 -3.592906 0.000000 0.000006 -207.915466 149.577195 217.741759 0.000003 0.000001 -10.352400 -393.434496 -6.135039 -356.319959 -0.000007 -0.000001 -12.750303 12.613126 6.214711 -9.617139 2.460606 -0.518106 -2.735500 -217.151835 8.940535 112.728236 0.000000 0.000001 -17.005903 -8.887739 187.453422 -73.115502 -0.000007 0.000000 -19.194395 614.805381 160.881281 246.993164 -3.115494 -0.679596 -2.320298 -366.777170 -15.831993 9.961324 0.000000 0.000001 -17.680393 -468.776264 154.308904 -206.316328 0.000002 -0.000001 -16.993793 1026.278543 21.019120 -384.195409
-2.893095 19.070107 46.619095 2061.799589 4.791612 -18.458670 -0.201605 0.334095 6.453207 -14.737414 0.197755 12.323825 -0.000002 -0.000001 3.568005 -0.987281 -6.358895 -0.921529 0.000002 -0.000004 8.296393 236.457379 -162.801029 187.963568 0.000001 0.000003 2.173899 5.229937 -6.231709 4.851275 1.927599 0.221405 6.048987 -10.722051 -4.030421 8.623909 4.959702 -0.000002 -0.000001 167.289952 195.849022 61.942992 -0.000004 0.000003 -8.654198 82.175550 -15.619020 8.999009 -0.000003 0.000004 -13.864100 4197.516469 -152.056772 198.969749 -3.155704 -0.765003 6.687796 32.457312 3.142858 11.128873 -3.592899 0.000005 0.000009 -208.238452 152.237021 217.269711 -0.000000 0.000004 -10.352397 -393.886573 -7.146325 -356.536175 -0.000007 -0.000004 -12.750298 13.084274 7.319232 -10.360018 2.460598 -0.518108 -2.735497 -217.116237 9.352373 112.839096 -0.000000 -0.000005 -17.005899 -8.882351 188.019849 -73.405990 -0.000004 0.000003 -19.194395 614.764727 160.929051 247.223451 -3.115503 -0.679600 -2.320301 -366.908746 -16.252860 10.007965 0.000000 0.000003 -17.680405 -467.360940 154.364884 -206.760713 0.000006 -0.000000 -16.993793 1025.395099 21.050600 -385.448093
-2.897903 19.051901 46.588196 2061.758280 4.828299 -18.624935 -0.201601 0.334100 6.453204 -14.210106 0.530537 12.396022 -0.000002 0.000001 3.567996 -1.335264 -6.337125 -0.954833 0.000007 0.000000 8.296398 236.154337 -162.566808 188.146658 0.000002 -0.000002 2.173897 5.461797 -6.065190 4.776144 1.927604 0.221405 6.048994 -10.556536 -4.340172 8.193299 4.959701 -0.000004 0.000011 166.917351 196.204615 62.487051 0.000001 0.000000 -8.654200 80.820700 -15.897767 8.658210 0.000006 -0.000002 -13.864090 4198.073375 -151.801350 198.591124 -3.155698 -0.764999 6.687799 31.838247 -0.202377 11.841397 -3.592899 0.000005 0.000008 -208.073763 150.406967 218.616351 -0.000002 0.000001 -10.352399 -392.848575 -6.629123 -356.385556 0.000001 -0.000003 -12.750307 13.192428 7.175766 -10.443144 2.460596 -0.518101 -2.735495 -216.975316 9.203876 113.072887 -0.000001 -0.000007 -17.005898 -8.616355 188.567835 -73.374359 -0.000007 -0.000001 -19.194399 614.929308 161.082430 247.462070 -3.115499 -0.679593 -2.320304 -367.025816 -16.633457 10.030708 0.000001 0.000001 -17.680399 -469.498133 153.334113 -206.497574 0.000012 -0.000004 -16.993797 1026.596994 21.441635 -382.863139
-2.921898 19.041101 46.566891 2062.000451 4.692182 -18.768728 -0.201602 0.334098 6.453205 -14.198304 0.792499 12.367379 0.000001 0.000007 3.567999 -1.569568 -6.472630 -1.009011 0.000009 -0.000004 8.296395 236.394049 -162.826177 188.225916 0.000006 -0.000000 2.173900 5.140053 -5.806510 5.010643 1.927601 0.221404 6.049001 -9.928205 -4.374878 7.873004 4.959703 -0.000004 0.000008 166.674538 196.274187 63.351166 -0.000001 -0.000002 -8.654198 81.016029 -16.283989 8.940955 0.000000 -0.000005 -13.864096 4197.940487 -152.037579 197.888626 -3.155700 -0.765004 6.687806 33.620237 3.389858 10.925876 -3.592901 0.000005 -0.000007 -208.795154 151.830515 217.694876 -0.000004 -0.000005 -10.352405 -393.326115 -7.117084 -356.557868 -0.000001 -0.000000 -12.750294 11.941067 7.706179 -10.683072 2.460602 -0.518106 -2.735499 -217.069846 8.949869 113.031489 -0.000000 -0.000004 -17.005899 -8.462339 188.486269 -73.557702 -0.000008 0.000002 -19.194399 614.848274 160.794237 247.082093 -3.115501 -0.679597 -2.320304 -366.997484 -16.561988 10.026071 -0.000002 0.000001 -17.680397 -465.686013 154.251968 -207.559313 0.000005 -0.000003 -16.993793 1023.726020 21.036091 -385.248515
-2.937496 19.014900 46.561195 2062.109079 4.807204 -19.109198 -0.201598 0.334097 6.453201 -14.233807 0.748139 12.472125 0.000004 0.000003 3.568002 -1.324842 -6.651295 -1.001422 0.000005 -0.000002 8.296396 236.095707 -163.040399 188.187148 0.000000 0.000001 2.173907 5.173029 -5.663069 5.177809 1.927598 0.221406 6.048994 -10.857182 -4.457842 8.475309 4.959702 -0.000001 0.000005 167.120263 196.676240 62.906295 -0.000008 -0.000001 -8.654198 80.727030 -16.373253 9.049345 0.000001 -0.000006 -13.864093 4197.992506 -151.694759 198.555430 -3.155704 -0.764999 6.687800 34.035744 4.197858 9.927020 -3.592901 0.000000 0.000000 -211.004829 153.471427 218.601803 0.000003 0.000001 -10.352397 -391.920790 -7.431330 -356.403150 0.000001 -0.000004 -12.750303 12.223845 6.083594 -9.667150 2.460600 -0.518107 -2.735499 -217.016461 9.148769 112.918900 -0.000001 -0.000006 -17.005898 -8.485952 189.116136 -73.944181 -0.000006 0.000001 -19.194399 615.361795 161.047979 248.086350 -3.115498 -0.679595 -2.320299 -366.529070 -16.354768 10.442189 -0.000000 0.000001 -17.680389 -465.654813 154.496434 -207.097578 0.000005 -0.000002 -16.993797 1023.985130 21.097934 -386.068247
-2.959599 19.003702 46.570496 2062.324585 4.838055 -19.173007 -0.201594 0.334104 6.453197 -14.460759 0.972526 12.328984 -0.000001 0.000008 3.567991 -1.277498 -6.615990 -1.006329 0.000006 -0.000004 8.296398 236.324600 -163.024307 188.850906 -0.000000 0.000005 2.173901 5.263910 -5.622589 4.820051 1.927600 0.221406 6.049000 -9.282958 -4.716447 8.277257 4.959704 0.000000 0.000009 166.277786 195.822999 63.260304 0.000002 0.000000 -8.654204 82.080241 -16.064496 9.426196 0.000005 0.000003 -13.864099 4197.392323 -151.593262 197.950562 -3.155705 -0.765000 6.687803 33.721088 3.486622 11.307259 -3.592901 0.000002 0.000010 -209.417015 152.272388 217.690314 0.000001 0.000002 -10.352397 -392.428519 -7.020275 -356.371049 -0.000007 -0.000001 -12.750299 11.747037 4.640734 -9.074833 2.460607 -0.518100 -2.735498 -217.093492 8.904723 112.991013 -0.000002 -0.000001 -17.005898 -8.376038 188.382368 -74.004362 -0.000006 0.000000 -19.194397 615.088533 161.070682 246.558600 -3.115497 -0.679592 -2.320299 -367.364894 -16.846798 10.144036 -0.000004 0.000000 -17.680403 -461.927169 155.067342 -208.163730 0.000003 -0.000001 -16.993793 1022.229498 20.964998 -387.411171
